<svg xmlns="http://www.w3.org/2000/svg" viewBox="0 0 720 420"><defs><radialGradient id="p"><stop stop-color="#7c2d12"/><stop offset="1" stop-color="#090b16"/></radialGradient></defs><rect width="720" height="420" fill="url(#p)"/><g fill="none" stroke-linecap="round"><path d="M360 290c-16-70-6-131 7-188M354 207c-76-70-137-52-195-77 35 56 83 92 174 99M374 207c69-74 137-57 197-83-37 62-88 98-176 107" stroke="#fb923c" stroke-width="15"/><path d="M360 289c-40-55-64-67-95-79M363 290c43-50 71-63 105-78" stroke="#facc15" stroke-width="7"/></g><circle cx="367" cy="111" r="15" fill="#fef3c7"/><rect x="537" y="38" width="132" height="132" fill="none" stroke="#5eead4" stroke-width="2"/><path d="M548 52h24M548 52v24M658 52h-24M658 52v24M548 156h24M548 156v-24M658 156h-24M658 156v-24" stroke="#5eead4" stroke-width="6"/><text x="48" y="382" fill="#fed7aa" font-family="Arial" font-size="17" letter-spacing="3">WEB AR / INTERACTIVE 3D</text></svg>
